<?xml version="1.0" standalone="no"?>
<!DOCTYPE svg PUBLIC "-//W3C//DTD SVG 20010904//EN"
 "http://www.w3.org/TR/2001/REC-SVG-20010904/DTD/svg10.dtd">
<svg version="1.0" xmlns="http://www.w3.org/2000/svg"
 width="800.000000pt" height="800.000000pt" viewBox="0 0 800.000000 800.000000"
 preserveAspectRatio="xMidYMid meet">
<metadata>
Created by potrace 1.11, written by Peter Selinger 2001-2013
</metadata>
<g transform="translate(0.000000,800.000000) scale(0.100000,-0.100000)"
fill="#000000" stroke="none">
<path d="M3971 6599 c-1043 -519 -1085 -539 -1107 -524 -13 8 -131 93 -261
187 -185 133 -245 172 -269 172 -21 0 -62 -20 -130 -64 -182 -118 -1727 -1121
-1861 -1209 -73 -47 -135 -92 -137 -98 -8 -21 2 -37 41 -62 l37 -24 -32 -26
c-18 -14 -32 -31 -32 -38 0 -7 25 -31 55 -54 l56 -42 -51 -34 c-63 -43 -64
-63 -5 -105 25 -18 45 -34 45 -37 0 -3 -21 -19 -48 -35 -59 -37 -92 -66 -92
-82 0 -7 23 -29 51 -49 l50 -38 -21 -22 c-25 -27 -20 -43 25 -74 19 -13 35
-27 35 -31 0 -5 -15 -18 -34 -29 -45 -28 -59 -47 -49 -65 4 -8 125 -100 268
-204 143 -105 259 -195 258 -201 -2 -6 3 -8 11 -5 8 3 17 0 22 -7 5 -8 3 -10
-7 -4 -22 13 19 -34 100 -112 40 -40 77 -71 81 -68 3 2 21 -12 39 -31 18 -19
37 -32 42 -28 5 3 12 -2 15 -10 3 -8 29 -31 58 -50 29 -19 58 -42 65 -50 8 -9
19 -16 25 -16 6 0 26 -14 45 -30 18 -17 36 -30 40 -30 3 0 19 -11 35 -25 16
-14 32 -25 36 -25 4 0 11 -9 16 -20 6 -14 9 16 8 87 -1 143 -1 142 -26 152
-13 5 -50 29 -83 53 -33 25 -127 93 -209 151 -82 59 -146 107 -142 107 28 0
404 -253 468 -315 12 -13 17 -40 20 -115 2 -68 7 -103 17 -112 8 -8 11 -8 7
-1 -3 6 1 18 9 27 9 8 16 18 15 21 -1 18 2 18 13 -1 33 -59 82 -122 89 -118 7
5 12 -18 9 -39 -1 -4 8 -3 19 3 14 8 20 8 20 0 0 -7 8 -9 19 -5 16 5 18 1 16
-25 -3 -32 3 -37 24 -18 9 8 12 9 7 1 -9 -16 3 -43 19 -43 7 0 15 -5 17 -12 2
-6 10 -8 17 -4 9 6 9 11 0 22 -19 23 -2 16 22 -8 12 -13 18 -16 14 -8 -8 13
-6 13 7 2 9 -8 14 -20 11 -28 -3 -9 1 -14 12 -14 10 0 14 5 10 12 -4 7 6 0 21
-17 15 -16 30 -29 33 -28 3 0 12 -5 19 -13 23 -25 -8 -15 -34 11 -14 14 -30
25 -37 25 -7 0 4 -14 23 -30 23 -19 47 -30 70 -30 30 -1 32 -3 15 -11 -16 -7
-14 -9 12 -6 18 2 30 0 28 -4 -3 -4 2 -9 10 -13 8 -3 14 -15 12 -28 -1 -17 3
-23 18 -24 11 -1 31 -3 45 -4 14 -1 19 -4 12 -7 -10 -4 -9 -8 5 -19 10 -7 23
-13 28 -14 6 0 3 5 -5 10 -9 6 -10 10 -3 10 7 0 17 -9 23 -21 7 -11 14 -18 17
-15 3 3 18 -3 34 -14 20 -15 29 -17 32 -8 5 12 11 -16 8 -35 -1 -4 7 -3 18 2
23 13 35 3 18 -17 -10 -13 -9 -14 11 -3 21 11 56 2 72 -19 10 -13 78 -50 91
-50 18 1 -22 34 -141 118 -52 37 -122 86 -155 109 -33 24 -85 60 -115 81 -331
230 -489 347 -494 365 -6 22 4 679 10 686 2 2 65 -41 141 -95 242 -172 528
-374 715 -506 26 -18 51 -42 55 -53 4 -11 6 -163 4 -337 -1 -175 1 -328 5
-340 6 -20 8 -18 20 21 7 25 11 48 8 53 -3 4 2 8 10 8 9 0 17 -4 17 -10 1 -5
2 -14 3 -19 2 -20 14 -21 19 -1 3 11 1 18 -4 14 -5 -3 -9 -1 -9 5 0 5 3 12 8
15 4 2 7 34 6 70 -1 36 2 66 7 66 12 0 11 9 18 -119 l6 -114 575 -413 c316
-228 602 -433 635 -457 539 -391 554 -401 595 -392 29 7 171 89 310 180 52 34
106 68 120 76 14 9 43 26 64 39 87 53 18 -2 -116 -93 -320 -216 -354 -237
-388 -237 -36 0 -24 -8 -410 270 -140 101 -397 285 -570 410 -173 124 -412
296 -530 381 -118 86 -239 172 -268 193 l-53 37 16 -30 c17 -33 20 -118 5
-141 -8 -12 -10 -11 -11 8 -2 34 -3 40 -11 47 -4 4 -14 1 -22 -8 -14 -13 -13
-18 7 -43 18 -24 19 -27 4 -21 -10 4 -16 3 -12 -2 3 -5 -1 -12 -7 -15 -7 -3
-3 -3 9 0 21 5 40 -6 85 -49 10 -9 20 -17 22 -17 3 0 17 -11 32 -25 14 -13 30
-22 35 -19 5 3 12 -1 15 -9 5 -14 94 -83 94 -74 0 3 14 -8 31 -24 17 -16 37
-29 44 -29 7 0 16 -7 19 -16 3 -8 10 -13 14 -10 5 3 28 -13 52 -35 23 -22 45
-37 48 -35 2 3 15 -6 29 -20 14 -14 44 -37 66 -52 23 -15 70 -48 104 -74 34
-27 65 -48 68 -48 3 0 16 -9 28 -21 12 -12 34 -26 50 -31 15 -6 27 -14 27 -19
0 -5 5 -9 11 -9 7 0 31 -18 55 -40 24 -22 50 -40 59 -40 8 0 15 -4 15 -10 0
-5 8 -10 17 -10 9 0 13 -3 10 -6 -8 -9 91 -79 166 -117 31 -16 57 -34 57 -39
0 -5 5 -6 10 -3 6 3 13 -1 16 -9 3 -9 12 -16 20 -16 8 0 14 -5 14 -11 0 -5 5
-7 10 -4 6 3 10 1 10 -5 0 -6 4 -9 9 -5 6 3 14 -3 20 -12 6 -10 11 -14 11 -10
0 5 12 -1 26 -12 15 -11 30 -18 35 -15 5 3 9 0 9 -6 0 -6 5 -8 10 -5 6 4 7 11
4 17 -4 7 -2 8 5 4 6 -4 9 -11 7 -15 -7 -10 5 -24 34 -40 l25 -14 -20 23 c-20
23 31 -10 207 -137 107 -77 127 -79 217 -24 53 33 68 38 89 30 13 -5 27 -7 29
-5 3 3 16 1 29 -4 14 -6 24 -6 24 -1 0 5 35 12 78 16 42 4 88 8 101 10 16 3
21 1 14 -6 -9 -9 -71 -17 -143 -19 -19 0 -45 -8 -58 -18 l-23 -18 28 2 c15 1
28 2 28 3 0 1 15 4 34 6 24 2 30 0 20 -7 -10 -7 -7 -8 11 -3 14 4 48 8 77 9
28 0 49 4 47 8 -3 5 -2 8 3 8 4 1 31 3 58 5 188 14 351 19 438 12 29 -2 36 1
32 12 -3 8 5 3 19 -12 28 -30 66 -35 105 -13 14 8 32 11 40 8 10 -4 12 -1 6 9
-7 12 -6 12 7 1 9 -7 29 -10 48 -7 22 4 29 2 25 -6 -5 -8 -2 -8 11 -2 23 11
45 10 63 -1 9 -6 12 -5 7 2 -5 8 21 11 86 11 51 0 116 5 143 11 74 16 131 28
160 32 11 2 22 5 25 8 7 7 208 73 216 70 4 -1 10 3 13 9 4 6 18 12 31 13 14 2
27 5 30 9 13 14 92 49 101 44 5 -4 9 -1 9 4 0 6 3 10 8 9 4 -1 36 13 72 32 36
19 67 34 70 35 3 0 15 6 28 13 12 7 22 9 22 5 0 -4 4 -3 8 2 13 19 113 66 124
59 6 -4 8 -3 5 3 -5 8 44 36 83 47 13 4 73 39 106 61 20 14 40 22 45 19 5 -3
9 0 9 7 0 7 3 10 6 6 3 -3 14 2 24 11 33 31 64 52 76 52 7 0 16 9 19 20 6 19
10 22 38 24 21 2 176 168 178 191 0 6 8 18 16 28 9 9 13 17 9 17 -3 0 0 11 9
23 8 13 17 46 18 72 l4 48 119 61 c135 69 144 83 99 142 -15 20 -25 37 -24 38
2 2 20 11 39 21 44 22 70 44 70 60 0 7 -16 33 -35 58 l-34 45 24 16 c33 22 31
50 -5 96 -16 21 -30 41 -30 44 0 4 27 20 61 36 66 31 99 56 99 75 0 7 -16 32
-35 56 -19 24 -35 47 -35 50 0 3 23 16 51 29 71 34 78 52 40 105 l-31 43 31
12 c42 18 55 45 35 75 -27 41 -1187 1589 -1207 1611 -19 20 -18 20 15 32 43
16 86 49 86 67 0 7 -169 240 -375 517 -257 344 -383 505 -399 509 -30 8 -92
-13 -125 -44 -28 -26 -90 -61 -97 -54 -2 2 16 14 41 27 44 23 44 23 29 50 -9
15 -183 249 -388 521 -305 406 -375 494 -396 496 -16 1 -428 -199 -1109 -538z
m1102 377 c31 -37 268 -353 467 -621 106 -143 204 -272 217 -286 l24 -26 -58
-23 c-32 -12 -73 -24 -91 -26 -37 -5 -46 3 -174 168 -42 54 -80 98 -84 96 -4
-2 -10 7 -15 20 -5 12 -12 22 -16 22 -9 0 -33 -71 -33 -99 0 -15 69 -133 90
-151 3 -3 20 -26 38 -52 33 -47 41 -78 20 -78 -6 0 -8 -3 -5 -7 9 -9 -22 -43
-40 -43 -7 0 -13 -4 -13 -10 0 -5 -6 -10 -12 -10 -7 0 -26 -7 -43 -16 -16 -9
-104 -54 -195 -101 -91 -46 -166 -88 -168 -93 -3 -9 -96 -60 -109 -60 -5 0 12
12 37 26 25 14 47 30 51 35 10 17 -10 128 -33 182 -69 164 -218 299 -400 364
-101 35 -255 37 -339 5 -75 -30 -152 -106 -179 -179 -41 -110 -23 -262 46
-388 41 -75 177 -204 256 -243 70 -34 89 -38 119 -22 10 6 19 7 19 2 0 -12
-39 -30 -80 -35 -19 -3 -110 -42 -201 -87 -91 -45 -184 -84 -205 -86 -38 -5
-40 -4 -94 68 -82 109 -123 148 -153 148 -14 0 -29 -5 -32 -11 -4 -6 -14 -8
-22 -4 -12 4 -13 3 -5 -8 7 -8 9 -16 6 -20 -5 -5 48 -92 65 -107 17 -14 70
-101 72 -117 5 -32 -11 -58 -51 -83 -29 -17 -40 -30 -38 -45 2 -15 -3 -21 -24
-23 -16 -2 -28 -9 -28 -16 0 -6 -5 -17 -12 -24 -17 -17 -38 -103 -31 -129 3
-13 1 -23 -5 -23 -6 0 -9 -16 -8 -35 4 -43 -11 -36 -20 10 -6 35 37 209 57
229 5 6 9 16 9 23 0 7 -81 121 -180 253 -98 132 -176 240 -171 240 4 0 16 -8
25 -19 23 -26 123 -69 186 -81 122 -23 194 -6 260 60 52 52 70 99 70 187 0
126 -65 243 -182 326 -90 64 -150 88 -239 94 -93 7 -164 -14 -220 -64 -54 -49
-72 -103 -68 -205 l4 -84 -64 81 c-104 131 -126 166 -110 176 12 8 12 10 0 18
-11 7 -10 11 5 19 11 5 475 238 1032 516 756 378 1019 505 1035 500 12 -3 30
-16 40 -28z m-2539 -802 c197 -141 246 -180 246 -198 0 -6 7 -23 14 -38 14
-26 13 -28 -6 -28 -14 0 -18 -5 -14 -15 9 -25 -3 -17 -70 44 -119 108 -270
165 -439 166 -117 0 -182 -19 -234 -67 -99 -92 -78 -223 55 -348 70 -65 139
-104 249 -140 90 -30 285 -33 350 -5 l40 17 -27 -26 c-15 -14 -37 -26 -48 -26
-12 0 -19 -4 -15 -10 4 -6 15 -6 31 0 40 15 52 11 19 -7 -59 -31 -77 -54 -70
-91 9 -48 -11 -32 -26 21 -17 58 -23 64 -66 60 -58 -4 -64 -9 -53 -38 9 -23 6
-29 -12 -26 -4 0 -5 -6 -2 -14 4 -8 13 -15 22 -15 13 0 12 -3 -4 -15 -10 -8
-14 -15 -7 -15 7 0 10 -7 6 -17 -5 -12 -3 -14 7 -8 9 5 11 4 6 -3 -4 -7 -3
-12 1 -12 5 0 14 -10 22 -22 12 -20 12 -21 0 -12 -119 94 -202 139 -330 177
-295 90 -579 32 -652 -133 -73 -162 45 -374 281 -507 51 -29 99 -53 107 -53 7
0 28 -7 46 -15 29 -12 31 -14 11 -15 -30 0 -68 -20 -54 -29 6 -4 5 -11 -4 -19
-13 -11 -14 -10 -10 12 3 14 1 26 -3 26 -5 0 -12 10 -16 23 -4 14 -8 18 -12 9
-3 -8 0 -19 6 -25 14 -14 14 -74 0 -82 -6 -4 -8 -13 -5 -21 3 -8 0 -11 -8 -8
-7 3 -16 -3 -20 -12 -9 -24 0 -29 21 -13 10 9 14 9 10 2 -5 -7 -42 -35 -84
-62 -54 -36 -80 -48 -91 -42 -9 5 -26 5 -37 1 -17 -7 -33 0 -71 28 -87 66
-180 122 -200 122 -11 0 -30 -11 -42 -25 -13 -14 -28 -23 -35 -20 -14 8 15
-18 64 -56 119 -93 179 -143 179 -149 0 -12 -75 -84 -104 -99 -21 -12 -28 -12
-45 0 -177 127 -372 269 -418 305 -52 41 -55 46 -28 41 208 -42 359 -30 422
32 47 47 63 83 63 141 0 150 -146 293 -370 361 -103 31 -250 31 -332 0 -102
-40 -150 -123 -128 -224 6 -29 18 -62 26 -75 36 -55 -2 -33 -193 110 -41 31
-51 45 -50 65 3 32 -11 22 432 308 152 98 393 255 638 415 106 69 233 152 282
183 50 32 189 122 310 201 145 95 230 144 249 145 21 1 75 -32 220 -135z
m2813 94 c-3 -8 -6 -5 -6 6 -1 11 2 17 5 13 3 -3 4 -12 1 -19z m-823 -193
c137 -67 260 -210 306 -355 21 -66 26 -125 11 -134 -5 -3 -11 20 -13 52 -3 32
-16 82 -31 115 -15 32 -27 60 -27 63 0 9 -57 87 -92 125 -40 44 -125 104 -187
132 -37 17 -66 21 -146 21 -89 0 -104 -2 -136 -24 -20 -13 -46 -39 -59 -57
-20 -29 -22 -42 -18 -125 3 -84 7 -100 40 -166 21 -40 43 -79 50 -86 7 -7 24
-27 38 -45 14 -18 54 -55 89 -82 79 -61 67 -65 -15 -5 -83 60 -138 126 -187
226 -38 78 -41 92 -41 161 0 67 4 81 30 119 16 25 53 58 84 77 53 33 58 34
140 31 75 -4 95 -9 164 -43z m-2159 -67 c110 -27 271 -144 306 -223 25 -55 24
-88 -6 -124 -35 -40 -83 -54 -169 -49 -84 6 -153 33 -251 98 -252 169 -171
371 120 298z m3915 -419 c173 -232 321 -433 328 -446 8 -14 10 -29 5 -33 -4
-4 -341 -175 -748 -379 -407 -204 -877 -441 -1045 -526 -348 -176 -352 -178
-374 -162 -9 7 -162 208 -340 447 -249 334 -322 438 -313 447 25 24 2123 1072
2147 1073 22 0 70 -59 340 -421z m-2773 336 c29 -15 77 -53 107 -84 166 -175
148 -378 -33 -375 -190 3 -396 269 -325 419 36 77 145 95 251 40z m1148 -35
c3 -5 1 -10 -4 -10 -6 0 -11 5 -11 10 0 6 2 10 4 10 3 0 8 -4 11 -10z m-428
-172 c-3 -8 -6 -5 -6 6 -1 11 2 17 5 13 3 -3 4 -12 1 -19z m-1315 -115 c77
-84 168 -236 168 -281 0 -2 -24 29 -53 69 -29 41 -76 105 -105 143 -49 64 -63
96 -44 96 5 0 20 -12 34 -27z m-401 -167 c13 7 7 -19 -6 -28 -16 -12 -30 -9
-18 3 6 6 10 17 9 23 -2 6 -1 8 1 3 3 -4 9 -5 14 -1z m1970 -1 c24 -10 28 -14
14 -14 -21 0 -78 28 -59 29 7 0 27 -7 45 -15z m-1593 -59 c62 -80 69 -97 76
-164 3 -35 11 -73 17 -85 7 -13 7 -18 1 -12 -20 19 -202 269 -202 277 0 4 5 8
11 8 6 0 9 6 6 14 -3 8 -1 17 6 19 25 8 47 -7 85 -57z m-839 18 l36 -14 -45 7
c-60 10 -216 10 -260 0 -30 -7 -32 -6 -15 5 47 29 212 30 284 2z m-399 -171
c0 -41 -3 -54 -10 -43 -11 17 -13 61 -4 84 11 28 14 18 14 -41z m1622 -121
c21 -15 97 -106 168 -202 l131 -175 -5 -60 c-2 -33 -8 -80 -13 -105 -9 -44
-10 -44 -18 -17 -4 17 -3 44 4 67 6 20 11 48 11 61 0 21 -247 366 -313 437
-28 30 -10 27 35 -6z m-2248 -3 c121 -38 258 -144 292 -225 33 -80 5 -134 -82
-160 -111 -32 -289 28 -410 138 -184 169 -56 327 200 247z m1812 -128 c74 -99
115 -171 99 -171 -4 0 -195 254 -209 278 -4 7 -2 12 7 12 8 0 54 -53 103 -119z
m3821 53 c-3 -3 -12 -4 -19 -1 -8 3 -5 6 6 6 11 1 17 -2 13 -5z m-81 -69 c9 0
1080 -1419 1140 -1510 13 -20 14 -29 5 -34 -6 -4 -9 -15 -5 -24 4 -13 -16 -27
-96 -67 -56 -27 -103 -50 -105 -50 -1 0 4 24 12 53 47 172 -65 376 -258 471
-91 45 -168 55 -261 36 -54 -12 -70 -21 -114 -65 -40 -40 -54 -62 -64 -104
-30 -127 20 -261 139 -374 75 -70 164 -111 268 -123 40 -5 51 -9 39 -16 -9 -5
-25 -6 -36 -3 -14 4 -20 2 -20 -9 0 -20 -1552 -798 -1574 -790 -12 5 -766
1004 -1098 1455 -80 110 -103 129 -123 107 -19 -20 -68 -206 -61 -231 3 -12
213 -299 467 -637 254 -338 476 -636 493 -661 17 -26 75 -103 129 -172 117
-150 124 -153 224 -109 38 17 88 33 111 37 56 7 109 35 147 75 21 23 202 118
608 321 575 288 607 301 659 281 26 -11 -1595 -816 -1625 -808 -14 4 -130 151
-329 419 -169 226 -440 590 -603 807 -316 424 -318 427 -296 515 20 81 44 160
54 173 5 6 22 12 38 12 16 0 55 10 87 23 31 13 69 22 85 21 19 -2 25 1 21 9
-4 7 2 4 13 -6 23 -20 201 -252 318 -412 125 -173 373 -495 381 -495 2 0 3 6
2 13 -2 7 8 12 24 12 15 0 33 6 39 13 29 28 30 9 2 -20 -83 -86 -84 -262 -4
-387 59 -91 173 -176 276 -206 64 -19 171 -21 222 -5 128 42 190 183 144 332
-25 80 -92 174 -158 223 -136 100 -281 127 -429 80 -13 -4 -26 -2 -33 7 -20
23 -637 853 -654 879 -24 36 -12 63 39 86 l44 21 83 -29 c156 -55 209 -64 382
-64 214 0 321 25 485 111 175 92 320 264 365 434 8 30 15 90 15 132 0 85 5 94
80 119 42 15 6 58 428 -504 214 -286 343 -449 357 -453 12 -3 42 -4 68 -2 l47
3 -52 75 c-42 62 -163 225 -195 265 -5 6 -19 26 -33 45 -13 19 -83 113 -155
208 -71 96 -140 188 -153 205 -12 18 -48 68 -80 111 -72 98 -73 120 -2 155 27
13 49 27 48 30 -2 18 4 24 10 11 4 -8 12 -15 18 -15z m-3393 -66 c21 -16 54
-33 74 -40 28 -9 55 -38 144 -157 62 -84 109 -156 109 -169 0 -51 -23 -182
-41 -231 -10 -29 -19 -65 -19 -79 0 -20 -3 -24 -11 -16 -8 8 -4 39 15 115 14
57 26 111 26 120 0 12 -235 335 -354 487 -13 18 0 11 57 -30z m-713 -62 c-30
-27 -69 -73 -54 -64 6 3 11 0 11 -8 0 -8 -5 -11 -10 -8 -6 4 -8 0 -4 -10 4
-10 1 -17 -6 -17 -9 0 -9 -2 1 -8 10 -7 10 -14 -2 -37 -16 -30 -12 -49 7 -39
7 3 4 -1 -5 -9 -19 -15 -24 -37 -8 -37 5 0 7 -7 4 -15 -4 -8 -11 -12 -18 -9
-6 3 -4 0 4 -8 8 -7 16 -26 17 -43 1 -16 10 -35 18 -41 10 -8 12 -15 6 -18 -6
-4 -8 -13 -5 -21 4 -8 10 -12 15 -9 5 3 10 0 10 -5 3 -20 5 -26 22 -59 10 -18
22 -30 26 -27 5 3 7 -4 4 -15 -4 -13 0 -20 10 -20 16 0 31 -26 19 -33 -4 -2
-2 -2 5 -1 13 3 36 -20 27 -28 -3 -3 20 -31 51 -62 37 -36 54 -60 49 -68 -5
-9 -1 -8 12 2 10 8 16 11 12 6 -3 -4 10 -23 30 -42 20 -19 33 -34 29 -34 -3 0
4 -10 16 -23 12 -13 27 -21 33 -19 6 2 14 -4 17 -12 4 -9 13 -16 22 -16 8 0
15 -4 15 -10 0 -5 20 -23 45 -40 32 -22 42 -35 38 -47 -4 -9 -2 -14 3 -11 5 3
14 0 21 -7 15 -16 -15 -41 -221 -180 -106 -71 -165 -105 -184 -105 -24 0 -308
195 -672 464 -25 18 -100 72 -168 121 -67 48 -125 92 -128 97 -4 6 2 18 12 27
18 17 366 242 587 380 56 35 132 83 169 107 37 24 71 44 75 44 5 0 19 9 33 20
34 27 41 25 10 -3z m-2038 -89 c105 -61 278 -205 278 -232 0 -3 -28 16 -63 42
-35 26 -101 74 -146 106 -91 66 -139 123 -69 84z m5651 -35 c-15 -157 -62
-261 -163 -361 -109 -108 -254 -183 -418 -217 -143 -29 -355 -13 -470 36 -24
10 -56 19 -70 20 -20 1 -15 3 15 9 52 11 1082 526 1090 546 11 30 20 12 16
-33z m-2374 -15 c61 -82 219 -290 415 -546 l179 -234 -6 -52 c-3 -29 -15 -86
-26 -127 -12 -41 -26 -90 -31 -109 -9 -31 -40 -142 -100 -365 -11 -38 -20 -81
-20 -95 0 -23 2 -22 25 13 14 20 32 37 41 37 18 0 30 31 45 115 6 36 15 65 20
65 15 0 11 -36 -16 -147 l-25 -104 22 -32 c53 -75 1162 -1554 1181 -1574 30
-33 68 -29 161 16 45 22 101 47 126 57 25 9 57 25 71 35 38 27 1218 614 1261
628 42 14 89 10 53 -4 -11 -4 -381 -187 -822 -407 -555 -276 -809 -398 -822
-393 -10 3 -239 299 -507 658 -268 359 -545 729 -615 822 -92 123 -129 180
-131 202 -1 18 -5 30 -9 27 -13 -8 -15 -61 -2 -73 13 -12 12 -28 -10 -106
l-12 -40 -3 50 c-2 32 -6 44 -12 35 -11 -18 -41 -22 -57 -8 -7 6 -13 7 -13 2
0 -5 -5 -2 -11 6 -9 13 -10 13 -6 0 2 -8 10 -14 17 -12 7 2 10 -3 7 -11 -3 -8
0 -20 6 -26 8 -8 8 -11 0 -11 -13 0 -147 179 -140 186 3 3 12 -2 21 -11 9 -9
16 -14 16 -10 0 4 7 -1 16 -10 15 -15 18 -15 35 1 15 14 22 15 31 6 14 -14 38
-16 38 -3 0 4 -28 43 -61 86 -34 43 -130 168 -213 279 -84 110 -196 257 -250
325 -53 69 -99 135 -102 148 -6 24 12 103 85 363 23 80 56 202 74 272 17 70
33 128 34 128 1 0 20 -24 42 -52z m-1621 35 c-10 -2 -28 -2 -40 0 -13 2 -5 4
17 4 22 1 32 -1 23 -4z m1532 -52 c0 -6 -5 -13 -10 -16 -6 -4 -7 -12 -4 -18 5
-9 4 -9 -6 0 -7 6 -10 19 -7 27 7 17 27 22 27 7z m-478 -118 c20 -21 93 -114
163 -208 l126 -170 -4 -64 c-3 -39 -10 -67 -18 -72 -8 -5 -10 -9 -5 -9 5 0 3
-7 -4 -16 -34 -40 -6 -133 61 -203 24 -25 30 -33 80 -107 15 -22 38 -52 53
-69 14 -16 26 -33 26 -37 0 -5 17 -27 38 -50 20 -22 32 -39 26 -37 -16 6 -72
72 -175 207 -163 214 -161 208 -129 322 12 41 24 85 27 97 4 17 -19 54 -99
160 -166 220 -219 293 -210 293 4 0 24 -17 44 -37z m-2692 -4 c77 -47 148
-109 154 -135 4 -15 21 -48 39 -73 25 -37 27 -43 10 -31 -179 125 -283 205
-283 219 0 19 19 41 35 41 5 0 26 -10 45 -21z m591 -247 c53 -34 289 -203 340
-244 36 -29 37 -30 37 -105 0 -49 -3 -71 -9 -62 -5 8 -9 35 -9 61 0 61 20 42
-260 243 -195 140 -189 135 -164 135 11 0 40 -13 65 -28z m391 -44 c-8 -8 -12
-47 -12 -107 0 -66 -3 -91 -10 -81 -11 16 -14 159 -4 184 3 9 13 16 22 16 12
0 13 -3 4 -12z m-929 -75 c125 -86 185 -133 191 -149 3 -7 3 -14 1 -14 -6 0
-232 163 -270 194 -56 47 -4 26 78 -31z m514 -73 c75 -21 111 -44 360 -228 34
-25 41 -56 42 -192 1 -68 5 -128 8 -133 3 -5 0 -8 -8 -5 -10 3 -15 32 -19 109
-3 57 -8 109 -12 116 -5 6 -75 59 -157 117 -236 167 -325 236 -307 236 9 0 51
-9 93 -20z m2251 -347 c-15 -2 -42 -2 -60 0 -18 2 -6 4 27 4 33 0 48 -2 33 -4z
m3931 -50 c116 -55 221 -203 221 -310 0 -101 -45 -147 -145 -147 -140 1 -294
142 -335 306 -38 150 96 229 259 151z m-4119 -38 l55 -15 -56 6 c-32 3 -70 9
-85 14 l-29 8 30 1 c17 0 55 -6 85 -14z m1241 -124 c-28 -51 -23 -59 418 -648
236 -315 434 -588 441 -605 60 -163 110 -234 208 -297 26 -16 64 -50 85 -75
44 -53 71 -58 152 -27 27 11 72 25 99 32 31 8 70 29 104 56 36 30 236 135 629
331 539 268 579 286 636 289 l62 4 -60 -28 c-33 -15 -404 -200 -825 -411 -421
-210 -774 -381 -785 -380 -13 2 -102 112 -260 323 -789 1054 -922 1231 -936
1254 -19 32 -11 139 17 221 l19 55 3 -37 c2 -20 -2 -46 -7 -57z m-603 -83 c45
-53 64 -78 59 -78 -3 0 -26 25 -52 55 -25 30 -44 55 -40 55 3 0 18 -14 33 -32z
m-1125 -5 c-7 -2 -21 -2 -30 0 -10 3 -4 5 12 5 17 0 24 -2 18 -5z m157 -16 c0
-5 4 -6 9 -3 5 3 11 0 14 -8 3 -8 14 -12 24 -10 12 4 24 -5 36 -26 10 -17 22
-28 26 -25 5 2 20 -9 34 -26 15 -19 32 -29 40 -26 9 3 14 -1 13 -11 0 -9 6
-17 15 -17 9 0 23 -7 31 -16 9 -8 30 -27 47 -42 17 -14 30 -31 29 -38 -2 -6 7
-13 20 -14 13 -1 38 -17 55 -35 18 -19 23 -28 12 -20 -13 9 -12 5 5 -12 14
-14 30 -23 35 -20 6 3 4 -1 -3 -10 -10 -13 -10 -18 -1 -24 8 -5 9 -3 4 7 -8
12 -6 12 8 0 9 -7 14 -17 11 -22 -3 -5 3 -12 13 -16 10 -4 20 -9 23 -12 3 -4
23 -19 45 -36 22 -16 42 -32 45 -36 6 -8 52 -24 62 -21 5 1 7 -1 7 -6 -3 -20
2 -32 15 -32 8 0 36 -21 63 -46 26 -25 60 -50 76 -56 15 -5 27 -14 27 -20 0
-5 5 -6 10 -3 6 3 10 1 10 -4 0 -6 19 -23 43 -38 35 -24 80 -57 167 -127 35
-28 37 -24 9 27 -30 57 -42 116 -30 150 6 15 9 4 13 -41 10 -102 74 -190 195
-268 32 -20 52 -39 45 -41 -11 -4 -40 15 -207 137 -27 20 -99 71 -160 114 -60
43 -121 86 -135 96 -39 29 -247 178 -333 239 -44 31 -107 76 -142 101 -35 25
-105 75 -157 112 -221 157 -312 228 -288 224 14 -2 31 -5 38 -5 7 -1 11 -5 8
-9 -3 -5 2 -9 10 -9 8 0 13 6 10 13 -2 6 -3 14 -1 16 7 7 55 3 55 -5z m-209
-87 c-5 -145 -34 -112 314 -361 282 -203 1017 -733 1160 -838 22 -16 89 -64
149 -105 125 -87 155 -94 232 -51 34 19 42 21 33 7 -13 -21 -73 -52 -99 -52
-27 0 -34 -17 -10 -25 19 -6 69 21 70 38 0 4 8 7 18 7 9 0 26 7 36 15 11 8 25
15 30 15 6 0 -19 -20 -56 -45 -37 -25 -77 -45 -88 -45 -22 0 -53 20 -265 173
-71 51 -229 165 -350 252 -121 87 -312 224 -425 305 -701 502 -749 538 -758
569 -12 45 -4 231 10 231 2 0 1 -41 -1 -90z m1264 0 c10 -11 16 -20 13 -20 -3
0 -13 9 -23 20 -10 11 -16 20 -13 20 3 0 13 -9 23 -20z m78 -105 c32 -41 53
-75 48 -75 -6 0 -22 17 -37 38 -15 20 -40 54 -56 75 -16 20 -25 37 -20 37 5 0
34 -34 65 -75z m-2333 25 c6 -11 8 -20 6 -20 -3 0 -10 9 -16 20 -6 11 -8 20
-6 20 3 0 10 -9 16 -20z m61 -53 c-10 -9 -11 -8 -5 6 3 10 9 15 12 12 3 -3 0
-11 -7 -18z m6114 13 c-3 -5 -56 -35 -118 -66 -62 -30 -118 -60 -124 -66 -20
-16 -15 7 5 24 22 20 213 117 230 118 7 0 10 -4 7 -10z m-5162 -207 c12 -11
117 -88 232 -170 274 -195 748 -536 898 -645 79 -57 128 -101 148 -132 58 -86
148 -151 292 -207 28 -11 72 -33 97 -49 70 -45 86 -45 168 -5 41 19 79 35 85
35 6 0 38 16 70 36 32 20 61 34 64 31 3 -3 -28 -27 -68 -53 -41 -25 -91 -58
-112 -73 -67 -46 -142 -91 -153 -91 -6 0 -65 38 -130 85 -65 47 -139 100 -164
117 -53 38 -696 499 -1136 815 l-311 224 -12 56 c-13 65 -14 136 -3 147 4 4 8
-17 10 -47 2 -41 8 -59 25 -74z m5088 28 c-9 -6 -10 -11 -2 -15 20 -13 2 -26
-111 -82 -105 -52 -137 -62 -103 -34 8 7 15 18 15 24 0 21 42 53 110 85 59 28
127 44 91 22z m-1921 -36 c159 -80 266 -295 198 -395 -30 -44 -61 -60 -118
-60 -68 0 -112 16 -178 65 -106 77 -182 217 -168 307 18 113 135 150 266 83z
m-3825 16 c3 -5 0 -13 -6 -17 -7 -4 -9 -3 -5 4 3 5 0 13 -6 15 -9 4 -10 6 -1
6 6 1 14 -3 18 -8z m5355 -44 c-14 -6 -379 -188 -812 -404 -576 -287 -797
-393 -820 -392 -18 0 -26 3 -18 6 8 3 375 185 815 404 549 274 809 399 830
398 l30 0 -25 -12z m304 -143 c23 -9 20 -27 -7 -40 -12 -6 -67 -34 -122 -61
-55 -28 -102 -49 -104 -47 -2 2 8 19 22 37 17 22 56 49 109 75 97 48 83 43
102 36z m-3594 -149 c0 -18 79 -105 96 -105 8 0 14 -4 14 -10 0 -5 6 -10 14
-10 7 0 19 -7 27 -16 7 -8 31 -25 53 -36 23 -12 35 -23 29 -25 -19 -7 -114 51
-171 103 -50 44 -92 113 -92 150 0 15 3 13 15 -10 8 -15 15 -34 15 -41z m3610
-20 c7 -9 11 -17 9 -19 -7 -6 -243 -125 -245 -123 -1 1 9 19 22 39 18 28 46
49 102 77 87 45 95 47 112 26z m-58 -195 c-62 -38 -214 -111 -219 -106 -13 12
27 42 111 83 49 23 101 43 115 43 26 0 25 0 -7 -20z m-3184 -20 c28 -16 -37
-11 -78 6 l-35 14 48 -5 c27 -3 56 -9 65 -15z m2811 -24 c-3 -3 -710 -357
-1496 -748 -137 -69 -173 -77 -173 -43 0 18 170 105 205 105 44 0 114 32 166
77 41 35 191 114 624 329 530 263 574 283 624 283 30 1 52 -1 50 -3z m-3022
-42 c-3 -3 -12 -4 -19 -1 -8 3 -5 6 6 6 11 1 17 -2 13 -5z m-7 -29 c7 -8 18
-15 24 -15 7 0 25 -14 42 -32 l29 -32 -40 29 c-73 52 -88 65 -78 65 6 0 16 -7
23 -15z m73 8 c-7 -2 -19 -2 -25 0 -7 3 -2 5 12 5 14 0 19 -2 13 -5z m157 -22
c0 -4 -24 -6 -52 -4 -78 7 -82 11 -10 12 34 1 62 -3 62 -8z m153 -318 c-7 -2
-19 -2 -25 0 -7 3 -2 5 12 5 14 0 19 -2 13 -5z m207 -238 c-6 -8 -37 -31 -68
-51 -32 -21 -104 -68 -161 -106 -58 -38 -110 -67 -118 -63 -8 3 -19 5 -24 5
-44 0 103 98 194 129 31 11 76 32 99 48 84 55 97 61 78 38z"/>
<path d="M4735 6777 c-61 -30 -87 -57 -116 -122 -46 -103 -7 -256 93 -362 172
-182 432 -220 555 -80 42 48 57 105 50 191 -12 142 -113 277 -264 352 -71 35
-86 39 -173 42 -84 3 -101 0 -145 -21z m232 -92 c103 -48 199 -161 227 -267
52 -201 -161 -269 -338 -107 -123 113 -171 257 -115 346 35 56 139 69 226 28z"/>
<path d="M4022 6334 c-293 -146 -530 -269 -527 -274 3 -5 26 -12 50 -16 25 -3
42 -10 39 -15 -3 -5 5 -5 18 0 24 9 315 152 352 173 11 6 150 76 309 155 230
114 288 147 283 160 -5 13 -4 14 9 3 13 -11 15 -6 15 34 0 25 -3 46 -7 46 -5
0 -248 -120 -541 -266z"/>
<path d="M1873 5842 c-23 -15 -88 -57 -145 -93 -253 -163 -347 -224 -401 -260
-32 -21 -60 -39 -62 -39 -3 0 -42 -26 -88 -57 -45 -32 -91 -64 -102 -71 -94
-60 -115 -76 -112 -86 4 -13 75 -27 102 -19 11 3 52 27 90 53 39 26 160 105
270 175 110 70 238 153 285 183 47 31 117 76 155 101 99 65 115 90 77 124 -23
21 -19 22 -69 -11z"/>
<path d="M2425 5400 c-4 -7 -1 -16 6 -21 17 -10 26 8 11 23 -6 6 -12 6 -17 -2z"/>
<path d="M5830 4006 c-77 -29 -91 -37 -130 -72 -115 -104 -138 -291 -56 -461
121 -251 441 -413 686 -348 30 8 79 31 110 52 114 79 159 243 111 403 -29 95
-77 173 -153 247 -94 91 -197 149 -323 182 -55 15 -203 13 -245 -3z m210 -90
c44 -14 42 -14 -67 -13 -93 2 -108 4 -90 14 29 16 102 16 157 -1z m87 -32 c-3
-3 -12 -4 -19 -1 -8 3 -5 6 6 6 11 1 17 -2 13 -5z m30 -20 c-3 -3 -12 -4 -19
-1 -8 3 -5 6 6 6 11 1 17 -2 13 -5z m-420 -117 c-15 -80 3 -161 53 -243 40
-65 119 -164 132 -164 5 0 18 -9 30 -19 13 -11 34 -29 47 -40 13 -12 19 -21
13 -21 -6 0 -14 5 -17 10 -4 6 -25 22 -47 36 -118 74 -238 269 -238 385 0 33
28 125 35 117 2 -2 -2 -29 -8 -61z m553 18 c24 -25 40 -45 35 -45 -13 0 -102
90 -89 90 5 0 30 -20 54 -45z m83 -103 c72 -101 100 -248 62 -322 -9 -17 -19
-30 -22 -27 -2 3 1 15 7 28 8 14 11 52 8 108 -5 90 -35 177 -78 223 -18 20
-26 38 -16 38 2 0 20 -22 39 -48z m-259 -427 c27 -8 73 -15 103 -15 34 0 52
-4 48 -10 -9 -15 -65 -12 -137 6 -68 18 -105 33 -78 34 8 0 37 -7 64 -15z
m203 -11 c-3 -3 -12 -4 -19 -1 -8 3 -5 6 6 6 11 1 17 -2 13 -5z"/>
<path d="M6521 3031 c-389 -194 -451 -229 -437 -240 8 -7 15 -16 14 -19 -2
-22 4 -32 20 -32 21 0 411 190 785 383 150 77 157 82 131 91 -16 5 -35 17 -44
27 -14 16 -43 3 -469 -210z m443 167 c-3 -4 -11 -5 -19 -1 -21 7 -19 12 4 10
11 0 18 -5 15 -9z"/>
<path d="M4040 3129 c0 -5 5 -7 10 -4 6 3 10 8 10 11 0 2 -4 4 -10 4 -5 0 -10
-5 -10 -11z"/>
<path d="M4035 3101 c-3 -5 0 -13 6 -17 7 -4 9 -3 5 4 -3 5 0 13 6 15 9 4 10
6 1 6 -6 1 -14 -3 -18 -8z"/>
<path d="M1950 2945 c14 -17 30 -20 30 -4 0 5 -4 7 -10 4 -5 -3 -10 -1 -10 4
0 6 -5 11 -11 11 -8 0 -8 -5 1 -15z"/>
</g>
</svg>
